<svg width="260" height="63" viewBox="0 0 260 63" fill="none" xmlns="http://www.w3.org/2000/svg">
<path d="M214.224 0.227577C211.712 0.942562 210.172 2.88588 210.172 5.36083C210.172 7.46915 211.217 9.08246 213.234 10.0724C214.352 10.6224 214.609 10.6774 216.112 10.6591C217.505 10.6591 217.946 10.5858 218.789 10.2008C220.219 9.54077 220.879 8.89912 221.52 7.6158C222.896 4.88418 221.814 1.82255 219.045 0.557577C217.762 -0.0290934 215.654 -0.175751 214.224 0.227577Z" fill="#001848"/>
<path d="M15.2928 4.15087C11.6078 4.93918 8.43623 6.64417 5.74125 9.30246C3.00962 11.9974 1.46964 14.6374 0.479639 18.249C0.0580101 19.8442 0.0029819 20.3572 0.0029819 23.2354C-0.0153188 26.1874 0.0396675 26.5907 0.479639 28.2407C2.27629 34.6389 6.93289 39.5889 13.0928 41.6421C14.9078 42.2469 15.7144 42.3939 20.4261 42.9253C23.3592 43.2553 25.7609 43.5489 25.8158 43.6037C25.8526 43.6402 25.3945 44.7952 24.8078 46.152L23.7445 48.627L24.1109 49.2317C24.3128 49.5801 25.0645 50.8637 25.7794 52.11C26.5126 53.3751 27.1178 54.3651 27.1358 54.3467C27.1542 54.3287 28.1442 52.092 29.2992 49.3603C30.4726 46.647 31.4991 44.3554 31.5724 44.2821C31.6825 44.172 36.3758 44.6121 36.4859 44.7403C36.7242 45.0334 40.7026 52.0367 40.8856 52.4953C41.2709 53.43 41.1972 54.567 40.6842 55.6303C40.1339 56.6936 39.2541 57.39 37.9889 57.702C36.8892 57.9767 35.4042 57.5919 34.6709 56.8217L34.1759 56.3083L35.0009 54.3651C35.4591 53.2834 35.8259 52.3119 35.8259 52.2017C35.8259 51.8353 32.6361 46.5184 32.5075 46.6654C32.3241 46.8304 28.3092 56.1253 28.3092 56.3636C28.3092 56.8033 30.2159 59.5534 31.0958 60.3969C34.5976 63.6784 40.0791 63.6236 43.5256 60.2319C45.3222 58.4717 46.1292 56.4733 46.1472 53.8517C46.1472 52.44 46.0555 51.8901 45.6891 50.9186C45.3222 49.947 39.7675 40.1571 39.3458 39.6986C39.2725 39.6437 38.0258 39.4419 36.5592 39.2769C35.0926 39.1119 33.8824 38.9469 33.8643 38.9289C33.8459 38.9104 34.6893 36.8936 35.7526 34.4186C36.8159 31.962 37.8792 29.2856 38.1175 28.4606C41.2889 17.4789 34.3041 6.24084 22.9375 4.07754C20.9395 3.69255 17.2726 3.7292 15.2928 4.15087ZM22.5895 9.77912C23.2311 9.92578 24.3676 10.3291 25.1378 10.6774C29.7578 12.804 32.5992 16.6907 33.2592 21.8057C33.4975 23.529 33.3141 25.6372 32.8191 27.2687C32.5992 28.002 28.3641 38.0854 28.2175 38.2504C28.0709 38.3786 17.4929 37.1139 16.0628 36.7839C11.1495 35.6653 7.13458 31.632 5.94293 26.664C5.30128 23.9872 5.55791 20.6139 6.58459 18.0472C7.28123 16.2874 8.16122 14.9674 9.60953 13.5189C13.0378 10.0541 17.7312 8.69749 22.5895 9.77912Z" fill="#001848"/>
<path d="M153.524 15.0044C150.591 15.2792 147.951 16.4342 145.916 18.304L145.091 19.0742V17.2043V15.3524H140.508H135.924V38.3607V61.3686H140.691H145.457V53.302V45.217L146.612 46.1706C148.061 47.3988 150.242 48.4253 152.222 48.8106C154.514 49.2871 158.364 49.1221 160.545 48.4621C165.184 47.0689 168.649 44.0804 170.592 39.8089C172.334 35.9774 172.645 30.7523 171.399 26.4443C169.162 18.7442 162.03 14.1794 153.524 15.0044ZM156.659 23.254C158.969 23.914 160.912 25.8023 161.811 28.2773C162.306 29.6341 162.489 33.0439 162.141 34.6021C161.811 36.124 161.077 37.5173 160.05 38.6174C158.291 40.4873 156.567 41.2021 153.891 41.2021C151.214 41.2021 149.49 40.4873 147.731 38.6174C146.117 36.8941 145.457 34.9506 145.457 31.9441C145.457 29.2857 145.971 27.5993 147.309 25.8756C149.399 23.1443 152.919 22.1723 156.659 23.254Z" fill="#001848"/>
<path d="M67.9459 15.3713C63.9126 16.2147 60.8325 17.938 58.1745 20.8163C53.3711 26.023 52.5829 34.4195 56.3042 40.8361C57.2578 42.4677 60.1361 45.346 61.8041 46.3175C64.5911 47.9675 67.3961 48.8294 70.6043 49.0677C76.6541 49.4894 81.5492 47.9307 84.8672 44.5394C85.9125 43.4761 87.3422 41.386 87.3422 40.9278C87.3422 40.7444 80.3573 36.8028 80.0458 36.8028C79.9725 36.8028 79.6973 37.1693 79.4042 37.6094C78.6709 38.7828 77.4058 39.8641 76.0125 40.5241C74.8206 41.0928 74.6925 41.1108 72.3825 41.1108H69.9992L68.5875 40.4144C64.7561 38.5261 62.9959 34.456 63.9859 29.6894C64.6828 26.3161 67.1209 23.7494 70.3108 23.053C71.9976 22.6861 74.5639 22.888 75.8659 23.4747C77.2772 24.1347 78.3773 25.033 79.2392 26.2613C79.6056 26.8111 79.9905 27.2513 80.0642 27.2697C80.1375 27.2697 81.8423 26.3894 83.8588 25.3077L87.5072 23.3461L87.1223 22.6128C85.2156 18.8547 81.3658 16.1963 76.5259 15.2796C74.3625 14.8578 70.1458 14.9131 67.9459 15.3713Z" fill="#001848"/>
<path d="M198.623 15.2618C195.873 15.8121 193.948 16.7652 192.207 18.4152C191.565 19.0568 190.996 19.5702 190.978 19.5702C190.942 19.5702 190.923 18.6166 190.923 17.4616V15.3535H186.34H181.757V32.0365V48.7199H186.505H191.253L191.345 39.7731C191.4 32.2748 191.473 30.6801 191.712 29.8002C192.592 26.7201 194.223 24.9783 197.065 24.1169C198.055 23.8049 198.806 23.7136 200.42 23.7136H202.473V19.3503V14.9871L201.153 15.0051C200.42 15.0051 199.283 15.1336 198.623 15.2618Z" fill="#001848"/>
<path d="M241.503 15.28C234.665 16.5083 230.723 20.3033 230.705 25.6566C230.705 28.4431 231.493 30.4596 233.217 32.0363C235.197 33.8513 237.635 34.6947 243.85 35.7031C248.176 36.3996 249.515 36.7844 250.23 37.5361C250.927 38.2514 251 39.4244 250.395 40.213C248.525 42.7428 240.458 42.376 234.592 39.5161C233.749 39.1128 233.052 38.8013 233.015 38.8377C232.85 39.058 229.972 45.3828 229.972 45.5478C229.972 45.8045 232.63 47.0877 234.188 47.6011C235.857 48.133 238.222 48.6644 240.055 48.9027C242.273 49.1963 246.783 49.1594 248.855 48.8294C255.528 47.7477 259.561 44.3011 259.965 39.3147C260.313 34.9146 258.076 31.633 253.713 30.1848C252.393 29.7447 250.963 29.4331 244.272 28.168C241.081 27.5628 239.872 26.7747 239.872 25.3446C239.872 21.8616 247.938 21.055 254.208 23.9148C254.996 24.2813 255.675 24.538 255.73 24.5016C255.766 24.4463 256.5 22.9433 257.343 21.1283L258.901 17.8283L257.508 17.1499C255.877 16.3617 253.383 15.6649 250.78 15.2616C248.488 14.9131 243.428 14.9316 241.503 15.28Z" fill="#001848"/>
<path d="M90.8272 15.4809C90.8272 15.5362 94.054 23.1078 98.0135 32.2925L105.182 48.9755L104.595 50.1125C103.862 51.5238 102.927 52.5138 101.845 52.9908C100.085 53.7789 96.8585 53.3208 95.062 52.0008C94.6402 51.7072 94.2554 51.4689 94.1821 51.4689C94.0904 51.4689 93.2654 52.9723 92.3302 54.8058C90.772 57.8855 90.6622 58.1606 90.937 58.4538C91.432 58.9856 93.5954 60.0305 95.3187 60.5623C96.8037 61.0205 97.2622 61.0573 99.8105 61.0753C103.055 61.0938 104.577 60.7638 106.795 59.6088C109.014 58.4353 111.177 56.0521 112.607 53.1922C112.882 52.6423 124.578 25.2892 128.538 15.9395L128.777 15.3528H124.157H119.518L114.844 26.5543C112.277 32.7142 110.132 37.7743 110.077 37.8108C110.022 37.8476 107.895 32.8059 105.328 26.6092L100.672 15.3528H95.7588C93.0455 15.3528 90.8272 15.4076 90.8272 15.4809Z" fill="#001848"/>
<path d="M211.274 32.0358V48.7192H216.133H220.991V32.0358V15.3528H216.133H211.274V32.0358Z" fill="#001848"/>
</svg>
