<svg width="63" height="63" viewBox="0 0 63 63" fill="none" xmlns="http://www.w3.org/2000/svg">
<path d="M15.2928 4.15087C11.6078 4.93918 8.43623 6.64417 5.74125 9.30246C3.00962 11.9974 1.46964 14.6374 0.479639 18.249C0.0580101 19.8442 0.0029819 20.3572 0.0029819 23.2354C-0.0153188 26.1874 0.0396675 26.5907 0.479639 28.2407C2.27629 34.6389 6.93289 39.5889 13.0928 41.6421C14.9078 42.2469 15.7144 42.3939 20.4261 42.9253C23.3592 43.2553 25.7609 43.5489 25.8158 43.6037C25.8526 43.6402 25.3945 44.7952 24.8078 46.152L23.7445 48.627L24.1109 49.2317C24.3128 49.5801 25.0645 50.8637 25.7794 52.11C26.5126 53.3751 27.1178 54.3651 27.1358 54.3467C27.1542 54.3287 28.1442 52.092 29.2992 49.3603C30.4726 46.647 31.4991 44.3554 31.5724 44.2821C31.6825 44.172 36.3758 44.6121 36.4859 44.7403C36.7242 45.0334 40.7026 52.0367 40.8856 52.4953C41.2709 53.43 41.1972 54.567 40.6842 55.6303C40.1339 56.6936 39.2541 57.39 37.9889 57.702C36.8892 57.9767 35.4042 57.5919 34.6709 56.8217L34.1759 56.3083L35.0009 54.3651C35.4591 53.2834 35.8259 52.3119 35.8259 52.2017C35.8259 51.8353 32.6361 46.5184 32.5075 46.6654C32.3241 46.8304 28.3092 56.1253 28.3092 56.3636C28.3092 56.8033 30.2159 59.5534 31.0958 60.3969C34.5976 63.6784 40.0791 63.6236 43.5256 60.2319C45.3222 58.4717 46.1292 56.4733 46.1472 53.8517C46.1472 52.44 46.0555 51.8901 45.6891 50.9186C45.3222 49.947 39.7675 40.1571 39.3458 39.6986C39.2725 39.6437 38.0258 39.4419 36.5592 39.2769C35.0926 39.1119 33.8824 38.9469 33.8643 38.9289C33.8459 38.9104 34.6893 36.8936 35.7526 34.4186C36.8159 31.962 37.8792 29.2856 38.1175 28.4606C41.2889 17.4789 34.3041 6.24084 22.9375 4.07754C20.9395 3.69255 17.2726 3.7292 15.2928 4.15087ZM22.5895 9.77912C23.2311 9.92578 24.3676 10.3291 25.1378 10.6774C29.7578 12.804 32.5992 16.6907 33.2592 21.8057C33.4975 23.529 33.3141 25.6372 32.8191 27.2687C32.5992 28.002 28.3641 38.0854 28.2175 38.2504C28.0709 38.3786 17.4929 37.1139 16.0628 36.7839C11.1495 35.6653 7.13458 31.632 5.94293 26.664C5.30128 23.9872 5.55791 20.6139 6.58459 18.0472C7.28123 16.2874 8.16122 14.9674 9.60953 13.5189C13.0378 10.0541 17.7312 8.69749 22.5895 9.77912Z" fill="#001848"/>
</svg>
